# Blender 4.1.1
# www.blender.org
mtllib main1.mtl
o Plane
v -1.000000 0.000000 1.000000
v 1.000000 0.000000 1.000000
v -1.000000 0.000000 -1.000000
v 1.000000 0.000000 -1.000000
v -1.000000 -0.100000 1.000000
v 1.000000 -0.100000 1.000000
v -1.000000 -0.100000 -1.000000
v 1.000000 -0.100000 -1.000000
vn -0.0000 1.0000 -0.0000
vn -0.0000 -1.0000 -0.0000
vn -1.0000 -0.0000 -0.0000
vn -0.0000 -0.0000 1.0000
vn 1.0000 -0.0000 -0.0000
vn -0.0000 -0.0000 -1.0000
vt 0.000000 0.000000
vt 1.000000 0.000000
vt 1.000000 1.000000
vt 0.000000 1.000000
s 0
usemtl Material.001
f 1/1/1 2/2/1 4/3/1 3/4/1
f 5/1/2 7/4/2 8/3/2 6/2/2
f 1/1/3 3/4/3 7/4/3 5/1/3
f 2/2/4 1/1/4 5/1/4 6/2/4
f 4/3/5 2/2/5 6/2/5 8/3/5
f 3/4/6 4/3/6 8/3/6 7/4/6
o Cylinder
v -0.695362 0.000151 -0.250323
v -0.661595 2.039535 0.421246
v -0.500272 0.000151 -0.231108
v -0.232432 2.084645 0.722629
v -0.312679 0.000151 -0.174202
v -0.208324 2.061901 0.490646
v -0.139792 0.000151 -0.081792
v -0.139792 2.000151 -0.081792
v 0.011745 0.000151 0.042571
v 0.011745 2.000151 0.042571
v 0.136107 0.000151 0.194107
v 0.136107 2.000151 0.194107
v 0.228517 0.000151 0.366994
v 0.228517 2.000151 0.366994
v 0.285423 0.000151 0.554587
v 0.285423 2.000151 0.554587
v 0.304638 0.000151 0.749677
v 0.295739 2.000151 0.788050
v 0.285423 0.000151 0.944768
v 0.276673 2.000151 0.907492
v 0.228517 0.000151 1.132361
v 0.220209 2.000151 1.022343
v 0.136107 0.000151 1.305248
v 0.128515 2.000151 1.128191
v 0.011745 0.000151 1.456784
v 0.005116 2.000151 1.220967
v -0.139792 0.000151 1.581147
v -0.145246 2.000151 1.297106
v -0.312679 0.000151 1.673557
v -0.316793 2.000151 1.353683
v -0.500272 0.000151 1.730463
v -0.502932 2.000151 1.388523
v -0.695362 0.000151 1.749677
v -0.696510 2.000151 1.400287
v -0.890453 0.000151 1.730463
v -0.890088 2.000151 1.388523
v -1.078046 0.000151 1.673557
v -1.076227 2.000151 1.353683
v -1.250932 0.000151 1.581147
v -1.247774 2.000151 1.297106
v -1.402469 0.000151 1.456784
v -1.398136 2.000151 1.220967
v -1.526832 0.000151 1.305248
v -1.521535 2.000151 1.128191
v -1.619242 0.000151 1.132361
v -1.613229 2.000151 1.022343
v -1.676147 0.000151 0.944768
v -1.669693 2.000151 0.907492
v -1.695362 0.000151 0.749677
v -1.688759 2.000151 0.788050
v -1.676147 0.000151 0.554587
v -1.669693 2.000151 0.668609
v -1.619242 0.000151 0.366994
v -1.613229 2.000151 0.553758
v -1.526832 0.000151 0.194107
v -1.521535 2.000151 0.447910
v -1.402469 0.000151 0.042571
v -1.398136 2.000151 0.355134
v -1.250932 0.000151 -0.081792
v -1.247774 2.000151 0.278994
v -1.078046 0.000151 -0.174202
v -1.076227 2.000151 0.222418
v -0.890453 0.000151 -0.231108
v -0.890088 2.000151 0.187578
vn 0.4172 0.3067 -0.8555
vn -0.5769 0.3414 -0.7420
vn -0.8840 0.0975 -0.4571
vn 0.6344 -0.0000 -0.7730
vn 0.7730 -0.0000 -0.6344
vn 0.8819 -0.0000 -0.4714
vn 0.9569 -0.0000 -0.2903
vn 0.9976 0.0029 -0.0687
vn 0.9927 0.0043 0.1208
vn 0.9362 0.0169 0.3509
vn 0.8337 0.0428 0.5506
vn 0.7001 0.0758 0.7100
vn 0.5499 0.1093 0.8280
vn 0.3932 0.1382 0.9090
vn 0.2354 0.1590 0.9588
vn 0.0783 0.1699 0.9824
vn -0.0783 0.1698 0.9824
vn -0.2354 0.1588 0.9588
vn -0.3932 0.1377 0.9091
vn -0.5500 0.1087 0.8281
vn -0.7002 0.0750 0.7100
vn -0.8337 0.0419 0.5506
vn -0.9363 0.0158 0.3510
vn -0.9927 0.0032 0.1208
vn -0.9926 0.0078 -0.1208
vn -0.9360 0.0293 -0.3508
vn -0.8328 0.0629 -0.5500
vn -0.6985 0.1020 -0.7083
vn -0.5478 0.1399 -0.8248
vn -0.3911 0.1717 -0.9042
vn 0.0062 0.9998 0.0192
vn -0.2339 0.1943 -0.9527
vn 0.4219 0.2329 -0.8762
vn -0.0000 -1.0000 -0.0000
vt 1.000000 0.500000
vt 1.000000 1.000000
vt 0.968750 1.000000
vt 0.968750 0.500000
vt 0.937500 1.000000
vt 0.937500 0.500000
vt 0.906250 1.000000
vt 0.906250 0.500000
vt 0.875000 1.000000
vt 0.875000 0.500000
vt 0.843750 1.000000
vt 0.843750 0.500000
vt 0.812500 1.000000
vt 0.812500 0.500000
vt 0.781250 1.000000
vt 0.781250 0.500000
vt 0.750000 1.000000
vt 0.750000 0.500000
vt 0.718750 1.000000
vt 0.718750 0.500000
vt 0.687500 1.000000
vt 0.687500 0.500000
vt 0.656250 1.000000
vt 0.656250 0.500000
vt 0.625000 1.000000
vt 0.625000 0.500000
vt 0.593750 1.000000
vt 0.593750 0.500000
vt 0.562500 1.000000
vt 0.562500 0.500000
vt 0.531250 1.000000
vt 0.531250 0.500000
vt 0.500000 1.000000
vt 0.500000 0.500000
vt 0.468750 1.000000
vt 0.468750 0.500000
vt 0.437500 1.000000
vt 0.437500 0.500000
vt 0.406250 1.000000
vt 0.406250 0.500000
vt 0.375000 1.000000
vt 0.375000 0.500000
vt 0.343750 1.000000
vt 0.343750 0.500000
vt 0.312500 1.000000
vt 0.312500 0.500000
vt 0.281250 1.000000
vt 0.281250 0.500000
vt 0.250000 1.000000
vt 0.250000 0.500000
vt 0.218750 1.000000
vt 0.218750 0.500000
vt 0.187500 1.000000
vt 0.187500 0.500000
vt 0.156250 1.000000
vt 0.156250 0.500000
vt 0.125000 1.000000
vt 0.125000 0.500000
vt 0.093750 1.000000
vt 0.093750 0.500000
vt 0.062500 1.000000
vt 0.062500 0.500000
vt 0.296822 0.485388
vt 0.250000 0.490000
vt 0.203178 0.485388
vt 0.158156 0.471731
vt 0.116663 0.449553
vt 0.080294 0.419706
vt 0.050447 0.383337
vt 0.028269 0.341844
vt 0.014612 0.296822
vt 0.010000 0.250000
vt 0.014612 0.203178
vt 0.028269 0.158156
vt 0.050447 0.116663
vt 0.080294 0.080294
vt 0.116663 0.050447
vt 0.158156 0.028269
vt 0.203178 0.014612
vt 0.250000 0.010000
vt 0.296822 0.014612
vt 0.341844 0.028269
vt 0.383337 0.050447
vt 0.419706 0.080294
vt 0.449553 0.116663
vt 0.471731 0.158156
vt 0.485388 0.203178
vt 0.490000 0.250000
vt 0.485388 0.296822
vt 0.471731 0.341844
vt 0.449553 0.383337
vt 0.419706 0.419706
vt 0.383337 0.449553
vt 0.341844 0.471731
vt 0.031250 1.000000
vt 0.031250 0.500000
vt 0.000000 1.000000
vt 0.000000 0.500000
vt 0.750000 0.490000
vt 0.796822 0.485388
vt 0.841844 0.471731
vt 0.883337 0.449553
vt 0.919706 0.419706
vt 0.949553 0.383337
vt 0.971731 0.341844
vt 0.985388 0.296822
vt 0.990000 0.250000
vt 0.985388 0.203178
vt 0.971731 0.158156
vt 0.949553 0.116663
vt 0.919706 0.080294
vt 0.883337 0.050447
vt 0.841844 0.028269
vt 0.796822 0.014612
vt 0.750000 0.010000
vt 0.703178 0.014612
vt 0.658156 0.028269
vt 0.616663 0.050447
vt 0.580294 0.080294
vt 0.550447 0.116663
vt 0.528269 0.158156
vt 0.514612 0.203178
vt 0.510000 0.250000
vt 0.514612 0.296822
vt 0.528269 0.341844
vt 0.550447 0.383337
vt 0.580294 0.419706
vt 0.616663 0.449553
vt 0.658156 0.471731
vt 0.703178 0.485388
s 0
usemtl Material.003
f 9/5/7 10/6/7 12/7/7 11/8/7
f 11/8/8 12/7/8 14/9/8 13/10/8
f 13/10/9 14/9/9 16/11/9 15/12/9
f 15/12/10 16/11/10 18/13/10 17/14/10
f 17/14/11 18/13/11 20/15/11 19/16/11
f 19/16/12 20/15/12 22/17/12 21/18/12
f 21/18/13 22/17/13 24/19/13 23/20/13
f 23/20/14 24/19/14 26/21/14 25/22/14
f 25/22/15 26/21/15 28/23/15 27/24/15
f 27/24/16 28/23/16 30/25/16 29/26/16
f 29/26/17 30/25/17 32/27/17 31/28/17
f 31/28/18 32/27/18 34/29/18 33/30/18
f 33/30/19 34/29/19 36/31/19 35/32/19
f 35/32/20 36/31/20 38/33/20 37/34/20
f 37/34/21 38/33/21 40/35/21 39/36/21
f 39/36/22 40/35/22 42/37/22 41/38/22
f 41/38/23 42/37/23 44/39/23 43/40/23
f 43/40/24 44/39/24 46/41/24 45/42/24
f 45/42/25 46/41/25 48/43/25 47/44/25
f 47/44/26 48/43/26 50/45/26 49/46/26
f 49/46/27 50/45/27 52/47/27 51/48/27
f 51/48/28 52/47/28 54/49/28 53/50/28
f 53/50/29 54/49/29 56/51/29 55/52/29
f 55/52/30 56/51/30 58/53/30 57/54/30
f 57/54/31 58/53/31 60/55/31 59/56/31
f 59/56/32 60/55/32 62/57/32 61/58/32
f 61/58/33 62/57/33 64/59/33 63/60/33
f 63/60/34 64/59/34 66/61/34 65/62/34
f 65/62/35 66/61/35 68/63/35 67/64/35
f 67/64/36 68/63/36 70/65/36 69/66/36
f 12/67/37 10/68/37 72/69/37 70/70/37 68/71/37 66/72/37 64/73/37 62/74/37 60/75/37 58/76/37 56/77/37 54/78/37 52/79/37 50/80/37 48/81/37 46/82/37 44/83/37 42/84/37 40/85/37 38/86/37 36/87/37 34/88/37 32/89/37 30/90/37 28/91/37 26/92/37 24/93/37 22/94/37 20/95/37 18/96/37 16/97/37 14/98/37
f 69/66/38 70/65/38 72/99/38 71/100/38
f 71/100/39 72/99/39 10/101/39 9/102/39
f 9/103/40 11/104/40 13/105/40 15/106/40 17/107/40 19/108/40 21/109/40 23/110/40 25/111/40 27/112/40 29/113/40 31/114/40 33/115/40 35/116/40 37/117/40 39/118/40 41/119/40 43/120/40 45/121/40 47/122/40 49/123/40 51/124/40 53/125/40 55/126/40 57/127/40 59/128/40 61/129/40 63/130/40 65/131/40 67/132/40 69/133/40 71/134/40
o Cube
v 0.144701 -0.000000 -0.550536
v 0.144701 0.148302 -0.550536
v 0.144701 -0.000000 -0.580477
v 0.144701 0.148302 -0.580477
v 0.379146 -0.000000 -0.550536
v 0.379146 0.148302 -0.550536
v 0.379146 -0.000000 -0.580477
v 0.379146 0.148302 -0.580477
vn -1.0000 -0.0000 -0.0000
vn -0.0000 -0.0000 -1.0000
vn 1.0000 -0.0000 -0.0000
vn -0.0000 -0.0000 1.0000
vn -0.0000 -1.0000 -0.0000
vn -0.0000 1.0000 -0.0000
vt 0.375000 0.000000
vt 0.625000 0.000000
vt 0.625000 0.250000
vt 0.375000 0.250000
vt 0.625000 0.500000
vt 0.375000 0.500000
vt 0.625000 0.750000
vt 0.375000 0.750000
vt 0.625000 1.000000
vt 0.375000 1.000000
vt 0.125000 0.500000
vt 0.125000 0.750000
vt 0.875000 0.500000
vt 0.875000 0.750000
s 0
usemtl Material.002
f 73/135/41 74/136/41 76/137/41 75/138/41
f 75/138/42 76/137/42 80/139/42 79/140/42
f 79/140/43 80/139/43 78/141/43 77/142/43
f 77/142/44 78/141/44 74/143/44 73/144/44
f 75/145/45 79/140/45 77/142/45 73/146/45
f 80/139/46 76/147/46 74/148/46 78/141/46
o Cube.001
v 0.137782 -0.006655 0.163603
v 0.137782 0.354358 0.163603
v 0.137782 -0.006655 -0.038108
v 0.137782 0.354358 -0.038108
v 0.164459 -0.006655 0.163603
v 0.164459 0.354358 0.163603
v 0.164459 -0.006655 -0.038108
v 0.164459 0.354358 -0.038108
vn -1.0000 -0.0000 -0.0000
vn -0.0000 -0.0000 -1.0000
vn 1.0000 -0.0000 -0.0000
vn -0.0000 -0.0000 1.0000
vn -0.0000 -1.0000 -0.0000
vn -0.0000 1.0000 -0.0000
vt 0.375000 0.000000
vt 0.625000 0.000000
vt 0.625000 0.250000
vt 0.375000 0.250000
vt 0.625000 0.500000
vt 0.375000 0.500000
vt 0.625000 0.750000
vt 0.375000 0.750000
vt 0.625000 1.000000
vt 0.375000 1.000000
vt 0.125000 0.500000
vt 0.125000 0.750000
vt 0.875000 0.500000
vt 0.875000 0.750000
s 0
usemtl Material.004
f 81/149/47 82/150/47 84/151/47 83/152/47
f 83/152/48 84/151/48 88/153/48 87/154/48
f 87/154/49 88/153/49 86/155/49 85/156/49
f 85/156/50 86/155/50 82/157/50 81/158/50
f 83/159/51 87/154/51 85/156/51 81/160/51
f 88/153/52 84/161/52 82/162/52 86/155/52
o Text
v 0.772600 0.002340 -0.567860
v 0.605600 0.002340 -0.404860
v 0.605600 0.002340 -0.394860
v 0.683600 0.002340 -0.394860
v 0.683600 0.002340 -0.157860
v 0.684620 0.002340 -0.138070
v 0.687679 0.002340 -0.119291
v 0.692772 0.002340 -0.101657
v 0.699896 0.002340 -0.085304
v 0.709048 0.002340 -0.070369
v 0.720225 0.002340 -0.056985
v 0.733422 0.002340 -0.045289
v 0.748637 0.002340 -0.035416
v 0.765865 0.002340 -0.027501
v 0.785104 0.002340 -0.021679
v 0.806350 0.002340 -0.018087
v 0.829600 0.002340 -0.016860
v 0.837225 0.002340 -0.017126
v 0.845517 0.002340 -0.017902
v 0.854350 0.002340 -0.019157
v 0.863600 0.002340 -0.020860
v 0.873142 0.002340 -0.022980
v 0.882850 0.002340 -0.025485
v 0.892600 0.002340 -0.028344
v 0.902267 0.002340 -0.031527
v 0.911725 0.002340 -0.035001
v 0.920850 0.002340 -0.038735
v 0.929516 0.002340 -0.042699
v 0.937600 0.002340 -0.046860
v 0.937600 0.002340 -0.129860
v 0.928661 0.002340 -0.124589
v 0.919841 0.002340 -0.119777
v 0.911131 0.002340 -0.115423
v 0.902526 0.002340 -0.111527
v 0.894018 0.002340 -0.108089
v 0.885600 0.002340 -0.105110
v 0.877265 0.002340 -0.102589
v 0.869007 0.002340 -0.100527
v 0.860819 0.002340 -0.098923
v 0.852692 0.002340 -0.097777
v 0.844622 0.002340 -0.097089
v 0.836600 0.002340 -0.096860
v 0.829879 0.002340 -0.097186
v 0.822832 0.002340 -0.098217
v 0.815631 0.002340 -0.100032
v 0.808452 0.002340 -0.102712
v 0.801467 0.002340 -0.106336
v 0.794850 0.002340 -0.110985
v 0.788775 0.002340 -0.116738
v 0.783415 0.002340 -0.123675
v 0.778944 0.002340 -0.131876
v 0.775535 0.002340 -0.141420
v 0.773363 0.002340 -0.152388
v 0.772600 0.002340 -0.164860
v 0.772600 0.002340 -0.394860
v 0.914600 0.002340 -0.394860
v 0.914600 0.002340 -0.474860
v 0.772600 0.002340 -0.474860
v 0.592600 0.002340 -0.474860
v 0.478600 0.002340 -0.474860
v 0.350600 0.002340 -0.320860
v 0.217600 0.002340 -0.474860
v 0.105600 0.002340 -0.474860
v 0.294600 0.002340 -0.253860
v 0.105600 0.002340 -0.025860
v 0.217600 0.002340 -0.025860
v 0.350600 0.002340 -0.186860
v 0.491600 0.002340 -0.025860
v 0.605600 0.002340 -0.025860
v 0.407600 0.002340 -0.253860
v 0.064600 0.002340 -0.155860
v 0.051618 0.002340 -0.147655
v 0.038665 0.002340 -0.140055
v 0.025725 0.002340 -0.133079
v 0.012785 0.002340 -0.126749
v -0.000169 0.002340 -0.121086
v -0.013150 0.002340 -0.116110
v -0.026173 0.002340 -0.111843
v -0.039252 0.002340 -0.108305
v -0.052400 0.002340 -0.105516
v -0.065632 0.002340 -0.103499
v -0.078960 0.002340 -0.102273
v -0.092400 0.002340 -0.101860
v -0.113170 0.002340 -0.102817
v -0.132474 0.002340 -0.105679
v -0.150306 0.002340 -0.110438
v -0.166659 0.002340 -0.117082
v -0.181526 0.002340 -0.125601
v -0.194900 0.002340 -0.135985
v -0.206774 0.002340 -0.148223
v -0.217141 0.002340 -0.162305
v -0.225994 0.002340 -0.178219
v -0.233326 0.002340 -0.195957
v -0.239130 0.002340 -0.215508
v -0.243400 0.002340 -0.236860
v 0.072600 0.002340 -0.236860
v 0.071036 0.002340 -0.276592
v 0.066419 0.002340 -0.312795
v 0.058865 0.002340 -0.345485
v 0.048489 0.002340 -0.374675
v 0.035404 0.002340 -0.400379
v 0.019725 0.002340 -0.422610
v 0.001567 0.002340 -0.441383
v -0.018956 0.002340 -0.456712
v -0.041728 0.002340 -0.468610
v -0.066636 0.002340 -0.477092
v -0.093565 0.002340 -0.482170
v -0.122400 0.002340 -0.483860
v -0.152581 0.002340 -0.481971
v -0.181011 0.002340 -0.476416
v -0.207525 0.002340 -0.467360
v -0.231956 0.002340 -0.454971
v -0.254136 0.002340 -0.439416
v -0.273900 0.002340 -0.420860
v -0.291081 0.002340 -0.399471
v -0.305511 0.002340 -0.375416
v -0.317025 0.002340 -0.348860
v -0.325456 0.002340 -0.319971
v -0.330636 0.002340 -0.288916
v -0.332400 0.002340 -0.255860
v -0.330784 0.002340 -0.225109
v -0.325974 0.002340 -0.195101
v -0.318025 0.002340 -0.166204
v -0.306993 0.002340 -0.138786
v -0.292933 0.002340 -0.113215
v -0.275900 0.002340 -0.089860
v -0.255951 0.002340 -0.069088
v -0.233141 0.002340 -0.051267
v -0.207525 0.002340 -0.036766
v -0.179159 0.002340 -0.025953
v -0.148099 0.002340 -0.019195
v -0.114400 0.002340 -0.016860
v -0.095944 0.002340 -0.017215
v -0.078502 0.002340 -0.018286
v -0.061963 0.002340 -0.020079
v -0.046215 0.002340 -0.022601
v -0.031148 0.002340 -0.025859
v -0.016650 0.002340 -0.029860
v -0.002611 0.002340 -0.034611
v 0.011081 0.002340 -0.040119
v 0.024537 0.002340 -0.046391
v 0.037868 0.002340 -0.053434
v 0.051185 0.002340 -0.061255
v 0.064600 0.002340 -0.069860
v -0.241400 0.002340 -0.295860
v -0.237797 0.002340 -0.312959
v -0.232993 0.002340 -0.328735
v -0.226994 0.002340 -0.343157
v -0.219808 0.002340 -0.356193
v -0.211441 0.002340 -0.367813
v -0.201900 0.002340 -0.377985
v -0.191193 0.002340 -0.386678
v -0.179326 0.002340 -0.393860
v -0.166306 0.002340 -0.399501
v -0.152141 0.002340 -0.403568
v -0.136836 0.002340 -0.406032
v -0.120400 0.002340 -0.406860
v -0.105157 0.002340 -0.405975
v -0.090956 0.002340 -0.403360
v -0.077838 0.002340 -0.399079
v -0.065845 0.002340 -0.393193
v -0.055018 0.002340 -0.385766
v -0.045400 0.002340 -0.376860
v -0.037032 0.002340 -0.366537
v -0.029956 0.002340 -0.354860
v -0.024213 0.002340 -0.341891
v -0.019845 0.002340 -0.327693
v -0.016893 0.002340 -0.312329
v -0.015400 0.002340 -0.295860
v -0.390400 0.002340 -0.707860
v -0.960400 0.002340 -0.707860
v -0.960400 0.002340 -0.619860
v -0.724400 0.002340 -0.619860
v -0.724400 0.002340 -0.025860
v -0.626400 0.002340 -0.025860
v -0.626400 0.002340 -0.619860
v -0.390400 0.002340 -0.619860
vn -0.0000 1.0000 -0.0000
vt 0.017544 0.000000
vt 1.000000 0.000000
vt 0.000000 0.000000
vt 0.982456 0.000000
vt 0.964912 0.000000
vt 0.035088 0.000000
vt 0.052632 0.000000
vt 0.070175 0.000000
vt 0.947368 0.000000
vt 0.929825 0.000000
vt 0.912281 0.000000
vt 0.087719 0.000000
vt 0.894737 0.000000
vt 0.877193 0.000000
vt 0.105263 0.000000
vt 0.859649 0.000000
vt 0.526316 0.000000
vt 0.491228 0.000000
vt 0.508772 0.000000
vt 0.543860 0.000000
vt 0.842105 0.000000
vt 0.561404 0.000000
vt 0.122807 0.000000
vt 0.824561 0.000000
vt 0.578947 0.000000
vt 0.596491 0.000000
vt 0.807018 0.000000
vt 0.614035 0.000000
vt 0.789474 0.000000
vt 0.631579 0.000000
vt 0.771930 0.000000
vt 0.649123 0.000000
vt 0.140351 0.000000
vt 0.666667 0.000000
vt 0.754386 0.000000
vt 0.684211 0.000000
vt 0.736842 0.000000
vt 0.701754 0.000000
vt 0.719298 0.000000
vt 0.157895 0.000000
vt 0.175439 0.000000
vt 0.192982 0.000000
vt 0.473684 0.000000
vt 0.210526 0.000000
vt 0.456140 0.000000
vt 0.438596 0.000000
vt 0.228070 0.000000
vt 0.421053 0.000000
vt 0.403509 0.000000
vt 0.385965 0.000000
vt 0.245614 0.000000
vt 0.368421 0.000000
vt 0.350877 0.000000
vt 0.263158 0.000000
vt 0.333333 0.000000
vt 0.315789 0.000000
vt 0.280702 0.000000
vt 0.298246 0.000000
vt 0.454545 0.000000
vt 0.272727 0.000000
vt 0.363636 0.000000
vt 0.181818 0.000000
vt 0.090909 0.000000
vt 0.545455 0.000000
vt 0.727273 0.000000
vt 0.909091 0.000000
vt 0.636364 0.000000
vt 0.818182 0.000000
vt 0.387755 0.000000
vt 0.367347 0.000000
vt 0.377551 0.000000
vt 0.357143 0.000000
vt 0.397959 0.000000
vt 0.346939 0.000000
vt 0.408163 0.000000
vt 0.336735 0.000000
vt 0.418367 0.000000
vt 0.326531 0.000000
vt 0.428571 0.000000
vt 0.316327 0.000000
vt 0.438776 0.000000
vt 0.306122 0.000000
vt 0.448980 0.000000
vt 0.877551 0.000000
vt 0.867347 0.000000
vt 0.887755 0.000000
vt 0.857143 0.000000
vt 0.897959 0.000000
vt 0.846939 0.000000
vt 0.908163 0.000000
vt 0.295918 0.000000
vt 0.836735 0.000000
vt 0.459184 0.000000
vt 0.918367 0.000000
vt 0.826531 0.000000
vt 0.928571 0.000000
vt 0.816327 0.000000
vt 0.938776 0.000000
vt 0.806122 0.000000
vt 0.948980 0.000000
vt 0.469388 0.000000
vt 0.285714 0.000000
vt 0.795918 0.000000
vt 0.959184 0.000000
vt 0.785714 0.000000
vt 0.969388 0.000000
vt 0.479592 0.000000
vt 0.275510 0.000000
vt 0.775510 0.000000
vt 0.979592 0.000000
vt 0.765306 0.000000
vt 0.989796 0.000000
vt 0.489796 0.000000
vt 0.755102 0.000000
vt 0.265306 0.000000
vt 0.500000 0.000000
vt 0.255102 0.000000
vt 0.510204 0.000000
vt 0.244898 0.000000
vt 0.234694 0.000000
vt 0.520408 0.000000
vt 0.224490 0.000000
vt 0.214286 0.000000
vt 0.530612 0.000000
vt 0.204082 0.000000
vt 0.540816 0.000000
vt 0.193878 0.000000
vt 0.010204 0.000000
vt 0.744898 0.000000
vt 0.183673 0.000000
vt 0.020408 0.000000
vt 0.030612 0.000000
vt 0.551020 0.000000
vt 0.173469 0.000000
vt 0.040816 0.000000
vt 0.051020 0.000000
vt 0.163265 0.000000
vt 0.061224 0.000000
vt 0.153061 0.000000
vt 0.071429 0.000000
vt 0.561224 0.000000
vt 0.081633 0.000000
vt 0.142857 0.000000
vt 0.091837 0.000000
vt 0.132653 0.000000
vt 0.102041 0.000000
vt 0.112245 0.000000
vt 0.122449 0.000000
vt 0.571429 0.000000
vt 0.734694 0.000000
vt 0.581633 0.000000
vt 0.724490 0.000000
vt 0.714286 0.000000
vt 0.591837 0.000000
vt 0.704082 0.000000
vt 0.693878 0.000000
vt 0.602041 0.000000
vt 0.683673 0.000000
vt 0.673469 0.000000
vt 0.612245 0.000000
vt 0.663265 0.000000
vt 0.653061 0.000000
vt 0.642857 0.000000
vt 0.622449 0.000000
vt 0.632653 0.000000
s 0
usemtl Material.005
f 90/163/53 146/164/53 89/165/53
f 90/163/53 145/166/53 146/164/53
f 90/163/53 144/167/53 145/166/53
f 91/168/53 144/167/53 90/163/53
f 92/169/53 144/167/53 91/168/53
f 93/170/53 143/171/53 92/169/53
f 143/171/53 144/167/53 92/169/53
f 93/170/53 142/172/53 143/171/53
f 93/170/53 141/173/53 142/172/53
f 94/174/53 141/173/53 93/170/53
f 94/174/53 140/175/53 141/173/53
f 94/174/53 139/176/53 140/175/53
f 95/177/53 139/176/53 94/174/53
f 95/177/53 138/178/53 139/176/53
f 119/179/53 117/180/53 118/181/53
f 120/182/53 117/180/53 119/179/53
f 95/177/53 137/183/53 138/178/53
f 121/184/53 117/180/53 120/182/53
f 96/185/53 137/183/53 95/177/53
f 96/185/53 136/186/53 137/183/53
f 122/187/53 117/180/53 121/184/53
f 123/188/53 117/180/53 122/187/53
f 96/185/53 135/189/53 136/186/53
f 124/190/53 117/180/53 123/188/53
f 96/185/53 134/191/53 135/189/53
f 125/192/53 117/180/53 124/190/53
f 96/185/53 133/193/53 134/191/53
f 126/194/53 117/180/53 125/192/53
f 97/195/53 133/193/53 96/185/53
f 127/196/53 117/180/53 126/194/53
f 97/195/53 132/197/53 133/193/53
f 128/198/53 117/180/53 127/196/53
f 97/195/53 131/199/53 132/197/53
f 129/200/53 117/180/53 128/198/53
f 97/195/53 130/201/53 131/199/53
f 130/201/53 117/180/53 129/200/53
f 97/195/53 117/180/53 130/201/53
f 98/202/53 117/180/53 97/195/53
f 99/203/53 117/180/53 98/202/53
f 100/204/53 117/180/53 99/203/53
f 100/204/53 116/205/53 117/180/53
f 101/206/53 116/205/53 100/204/53
f 101/206/53 115/207/53 116/205/53
f 101/206/53 114/208/53 115/207/53
f 102/209/53 114/208/53 101/206/53
f 102/209/53 113/210/53 114/208/53
f 102/209/53 112/211/53 113/210/53
f 102/209/53 111/212/53 112/211/53
f 103/213/53 111/212/53 102/209/53
f 103/213/53 110/214/53 111/212/53
f 103/213/53 109/215/53 110/214/53
f 104/216/53 109/215/53 103/213/53
f 104/216/53 108/217/53 109/215/53
f 104/216/53 107/218/53 108/217/53
f 105/219/53 107/218/53 104/216/53
f 105/219/53 106/220/53 107/218/53
f 152/221/53 150/222/53 151/223/53
f 152/221/53 149/224/53 150/222/53
f 149/224/53 147/165/53 148/225/53
f 149/224/53 158/164/53 147/165/53
f 152/221/53 158/164/53 149/224/53
f 153/226/53 158/164/53 152/221/53
f 153/226/53 155/227/53 158/164/53
f 155/227/53 157/228/53 158/164/53
f 153/226/53 154/229/53 155/227/53
f 156/230/53 157/228/53 155/227/53
f 197/231/53 195/232/53 196/233/53
f 197/231/53 194/234/53 195/232/53
f 198/235/53 194/234/53 197/231/53
f 198/235/53 193/236/53 194/234/53
f 199/237/53 193/236/53 198/235/53
f 199/237/53 192/238/53 193/236/53
f 200/239/53 192/238/53 199/237/53
f 200/239/53 191/240/53 192/238/53
f 201/241/53 191/240/53 200/239/53
f 201/241/53 190/242/53 191/240/53
f 202/243/53 190/242/53 201/241/53
f 202/243/53 189/244/53 190/242/53
f 203/245/53 245/246/53 202/243/53
f 245/246/53 189/244/53 202/243/53
f 203/245/53 244/247/53 245/246/53
f 246/248/53 189/244/53 245/246/53
f 203/245/53 243/249/53 244/247/53
f 247/250/53 189/244/53 246/248/53
f 203/245/53 242/251/53 243/249/53
f 248/252/53 189/244/53 247/250/53
f 248/252/53 188/253/53 189/244/53
f 203/245/53 241/254/53 242/251/53
f 204/255/53 241/254/53 203/245/53
f 249/256/53 188/253/53 248/252/53
f 204/255/53 240/257/53 241/254/53
f 250/258/53 188/253/53 249/256/53
f 204/255/53 239/259/53 240/257/53
f 251/260/53 188/253/53 250/258/53
f 204/255/53 238/261/53 239/259/53
f 252/262/53 188/253/53 251/260/53
f 205/263/53 238/261/53 204/255/53
f 252/262/53 187/264/53 188/253/53
f 205/263/53 237/265/53 238/261/53
f 253/266/53 187/264/53 252/262/53
f 205/263/53 236/267/53 237/265/53
f 254/268/53 187/264/53 253/266/53
f 206/269/53 236/267/53 205/263/53
f 254/268/53 186/270/53 187/264/53
f 206/269/53 235/271/53 236/267/53
f 255/272/53 186/270/53 254/268/53
f 206/269/53 234/273/53 235/271/53
f 256/274/53 186/270/53 255/272/53
f 207/275/53 234/273/53 206/269/53
f 207/275/53 233/276/53 234/273/53
f 256/274/53 185/277/53 186/270/53
f 257/164/53 185/277/53 256/274/53
f 207/275/53 257/164/53 233/276/53
f 207/275/53 185/277/53 257/164/53
f 208/278/53 185/277/53 207/275/53
f 208/278/53 184/279/53 185/277/53
f 209/280/53 183/281/53 208/278/53
f 183/281/53 184/279/53 208/278/53
f 209/280/53 182/282/53 183/281/53
f 210/283/53 182/282/53 209/280/53
f 210/283/53 181/284/53 182/282/53
f 210/283/53 180/285/53 181/284/53
f 211/286/53 180/285/53 210/283/53
f 211/286/53 179/287/53 180/285/53
f 212/288/53 179/287/53 211/286/53
f 212/288/53 178/289/53 179/287/53
f 160/290/53 232/291/53 159/165/53
f 212/288/53 177/292/53 178/289/53
f 161/293/53 232/291/53 160/290/53
f 162/294/53 232/291/53 161/293/53
f 213/295/53 177/292/53 212/288/53
f 213/295/53 176/296/53 177/292/53
f 163/297/53 232/291/53 162/294/53
f 164/298/53 232/291/53 163/297/53
f 213/295/53 175/299/53 176/296/53
f 165/300/53 232/291/53 164/298/53
f 213/295/53 174/301/53 175/299/53
f 166/302/53 232/291/53 165/300/53
f 214/303/53 174/301/53 213/295/53
f 167/304/53 232/291/53 166/302/53
f 214/303/53 173/305/53 174/301/53
f 168/306/53 232/291/53 167/304/53
f 214/303/53 172/307/53 173/305/53
f 169/308/53 232/291/53 168/306/53
f 170/309/53 232/291/53 169/308/53
f 214/303/53 171/310/53 172/307/53
f 171/310/53 232/291/53 170/309/53
f 214/303/53 232/291/53 171/310/53
f 215/311/53 232/291/53 214/303/53
f 215/311/53 231/312/53 232/291/53
f 216/313/53 231/312/53 215/311/53
f 216/313/53 230/314/53 231/312/53
f 216/313/53 229/315/53 230/314/53
f 217/316/53 229/315/53 216/313/53
f 217/316/53 228/317/53 229/315/53
f 217/316/53 227/318/53 228/317/53
f 218/319/53 227/318/53 217/316/53
f 218/319/53 226/320/53 227/318/53
f 218/319/53 225/321/53 226/320/53
f 219/322/53 225/321/53 218/319/53
f 219/322/53 224/323/53 225/321/53
f 219/322/53 223/324/53 224/323/53
f 219/322/53 222/325/53 223/324/53
f 220/326/53 222/325/53 219/322/53
f 220/326/53 221/327/53 222/325/53
f 260/264/53 258/165/53 259/305/53
f 260/264/53 265/164/53 258/165/53
f 261/241/53 265/164/53 260/264/53
f 262/311/53 264/249/53 261/241/53
f 264/249/53 265/164/53 261/241/53
f 262/311/53 263/315/53 264/249/53
