# Alias OBJ Model File
# Exported from SketchUp, (c) 2000-2012 Trimble Navigation Limited
# File units = inches

mtllib yum01.mtl

g Mesh1 yum_sign1 Model

usemtl DarkMetal
v 14.1812 11.7864 13.5443
vt 1.93491 1.04678
vn -0.258819 0.965926 -8.03878e-16
v 14.8452 11.9643 13.5443
vt 1.93491 1.08975
v 14.8452 11.9643 -19.3307
vt -2.76152 1.08975
v 14.1812 11.7864 -19.3307
vt -2.76152 1.04678
v 14.1812 11.7864 -18.1851
vt -2.59787 1.04678
v 14.1812 11.7864 -16.1237
vt -2.30339 1.04678
v 14.1812 11.7864 7.54434
vt 1.07776 1.04678
v 14.1812 11.7864 10.4399
vt 1.49141 1.04678
v 14.1812 11.7864 12.5013
vt 1.7859 1.04678
f 1/1/1 2/2/1 3/3/1 4/4/1 5/5/1 6/6/1 7/7/1 8/8/1 9/9/1 

v 11.8192 23.2575 13.5443
vt -1.68846 1.4536
vn 1.38778e-16 -7.95051e-16 -1
vt -2.12075 0.74777
vt -2.02588 0.736649
v 11.1551 23.0796 13.5443
vt -1.59359 1.44248
f 10/10/2 2/11/2 1/12/2 11/13/2 

usemtl yum1234232
vt -0.00551032 1.03557
vn 0.965926 0.258819 -7.17251e-17
vt -0.00551033 -0.037291
vt 1.00006 -0.037291
v 11.8192 23.2575 -19.3307
vt 1.00006 1.03557
f 10/14/3 2/15/3 3/16/3 12/17/3 

usemtl DarkMetal
vt 2.12075 0.74777
vn -1.38778e-16 7.95051e-16 1
vt 1.68846 1.4536
v 11.1551 23.0796 -19.3307
vt 1.59359 1.44248
vt 2.02588 0.736649
f 3/18/4 12/19/4 13/20/4 4/21/4 

v 11.1551 23.0796 12.5013
vt -1.7859 1.04678
vn 0.258819 -0.965926 8.03878e-16
v 11.1551 23.0796 10.4399
vt -1.49141 1.04678
v 11.1551 23.0796 -16.1237
vt 2.30339 1.04678
v 11.1551 23.0796 -18.1851
vt 2.59787 1.04678
vt 2.76152 1.04678
vt 2.76152 1.08975
vt -1.93491 1.08975
vt -1.93491 1.04678
f 14/22/5 15/23/5 16/24/5 17/25/5 13/26/5 12/27/5 10/28/5 11/29/5 

usemtl metalseams
v 10.0299 27.279 10.4399
vt 2481.08 2.69161
vn -0.965926 -0.258819 7.17251e-17
vt 2481.08 2.32931
vt 2481.77 2.32931
v 10.0299 27.279 12.5013
vt 2481.77 2.69161
f 18/30/6 15/31/6 14/32/6 19/33/6 

vt 825.844 2.32931
vt 825.844 1.35501
v 17.2223 0.436757 10.4399
vt 825.844 0.375846
v 15.5923 4.03695e-13 10.4399
vt 826.407 0.375846
v -1.85579 65.1171 10.4399
vt 826.407 5.99369
v -1.16468 67.6963 10.4399
vt 825.962 6.1864
v -0.847176 67.7814 10.4399
vt 825.852 6.1864
v -0.824311 67.7875 10.4399
vt 825.844 6.1864
v 1.21389 60.1809 10.4399
vt 825.844 5.53015
vt 825.844 2.69161
f 15/34/2 8/35/2 20/36/2 21/37/2 22/38/2 23/39/2 24/40/2 25/41/2 26/42/2 18/43/2 

usemtl DarkMetal
vt -1.7859 0.482151
vt -1.49141 0.482151
vt -1.49141 1.21288
vt -1.7859 1.21288
f 9/44/3 8/45/3 15/46/3 14/47/3 

usemtl signbottom
vt -61.8561 2.37108
vt -61.9133 2.37108
vt -61.9133 1.57983
v 17.2223 0.436757 12.5013
vt -61.8561 1.57983
f 9/48/6 8/49/6 20/50/6 27/51/6 

v 15.5923 4.05334e-13 12.5013
vt 62.1312 484.772
vt 62.1312 484.659
vt 62.1885 484.659
vt 62.1885 484.772
f 28/52/1 27/53/1 20/54/1 21/55/1 

usemtl metalseams
v -0.824311 67.7875 12.5013
vt 826.282 6.1864
v -1.16468 67.6963 12.5013
vt 826.165 6.1864
v -1.85579 65.1171 12.5013
vt 825.719 5.99369
vt 825.719 0.375846
vt 826.282 0.375846
vt 826.282 1.35501
vt 826.282 2.32931
vt 826.282 2.69161
v 1.21389 60.1809 12.5013
vt 826.282 5.53015
f 29/56/4 30/57/4 31/58/4 28/59/4 27/60/4 9/61/4 14/62/4 19/63/4 32/64/4 

vt 826.165 6.35818
vn -0.258819 0.965926 1.62005e-14
vt 826.274 6.35818
f 23/65/7 30/57/7 29/56/7 24/66/7 

vt 825.844 5.99369
vn 0.965926 -0.258819 3.39823e-16
vt 825.844 6.21621
vt 825.157 6.21621
vt 825.157 5.99369
f 22/67/8 23/68/8 30/69/8 31/70/8 

v -1.03081 68.196 10.4399
vt 825.844 6.25932
v -19.3039 -1.27501e-14 10.4399
v -20.9339 0.436757 10.4399
v -2.66081 68.6327 10.4399
vt 826.407 6.25932
f 33/71/2 23/68/2 22/67/2 34/36/2 35/37/2 36/72/2 

v -1.03081 68.196 12.5013
vt 825.157 6.25932
f 37/73/8 30/69/8 23/68/8 33/71/8 

v -19.3039 -1.11112e-14 12.5013
vt 826.282 5.99369
vt 826.282 6.21621
vt 826.282 6.25932
v -2.66081 68.6327 12.5013
vt 825.719 6.25932
v -20.9339 0.436757 12.5013
f 38/60/4 31/74/4 30/75/4 37/76/4 39/77/4 40/59/4 

vt 2481.08 5.99369
vn -0.965926 0.258819 -4.74422e-16
vt 2481.08 0.375846
vt 2481.77 0.375846
vt 2481.77 5.99369
f 22/78/9 34/79/9 38/80/9 31/81/9 

vt 2481.77 0.235221
vn 0.258819 0.965926 -7.32041e-16
vt 2481.08 0.235221
f 40/82/10 38/80/10 34/79/10 35/83/10 

vt -2318.05 6.25932
vt -2318.05 0.375846
vt -2317.37 0.375846
vt -2317.37 6.25932
f 39/84/8 40/85/8 35/86/8 36/87/8 

vt 826.282 6.16547
vt 825.719 6.16547
f 33/88/10 36/89/10 39/58/10 37/74/10 

vt 2480.96 5.99369
vt 2480.96 0.375846
vt 2481.64 0.375846
vt 2481.64 5.99369
f 31/90/3 28/91/3 21/92/3 22/93/3 

vn -0.258819 0.965926 -8.03326e-16
vt 825.844 6.35818
f 24/40/11 29/94/11 25/41/11

vt -2318.18 5.53015
vt -2317.49 5.53015
vt -2317.49 6.1864
vt -2318.18 6.1864
f 26/95/6 32/96/6 29/97/6 25/98/6 

usemtl detourtop
v 1.21389 60.1809 17.0579
vt 51.0505 198.425
v 1.87796 60.3588 17.0579
vt 51.0505 198.406
v 1.87796 60.3588 -22.8442
vt 51.9573 198.406
v 1.21389 60.1809 -22.8442
vt 51.9573 198.425
v 1.21389 60.1809 -18.1851
vt 51.8515 198.425
v 1.21389 60.1809 -16.1237
vt 51.8046 198.425
vt 51.2009 198.425
vt 51.154 198.425
f 41/99/1 42/100/1 43/101/1 44/102/1 45/103/1 46/104/1 26/105/1 32/106/1 

v 2.26269 58.923 18.5443
vt -163.14 44.7565
vn -0.183013 0.683013 0.707107
vt -163.14 44.8145
vt -163.156 44.8145
v 1.59862 58.7451 18.5443
vt -163.156 44.7565
f 47/107/12 42/108/12 41/109/12 48/110/12 

usemtl yum1
v 10.694 27.457 17.0579
vt 1.03029 0.00767151
v 10.694 27.457 12.5013
vt 1.1377 0.00767151
v 10.694 27.457 10.4399
vt 1.18629 0.00767151
v 10.694 27.457 -22.8442
vt 1.9709 0.00767151
v 10.3093 28.8928 -24.3307
vt 2.00594 0.0504988
v 2.26269 58.923 -24.3307
vt 2.00594 0.946232
vt 1.9709 0.98906
vt 1.03029 0.98906
vt 0.995249 0.946232
v 10.3093 28.8928 18.5443
vt 0.995249 0.0504988
f 49/111/3 50/112/3 51/113/3 52/114/3 53/115/3 54/116/3 43/117/3 42/118/3 47/119/3 55/120/3 

usemtl detourtop
v 10.0299 27.279 17.0579
vt -50.1865 198.425
vt -50.2901 198.425
vt -50.2901 198.406
vt -50.1865 198.406
f 56/121/5 19/122/5 50/123/5 49/124/5 

usemtl DarkMetal
vt 300.648 4.14761
vt 301.298 4.14761
vt 301.298 2.01871
vt 300.648 2.01871
v 9.64519 28.7148 18.5443
vt 300.435 2.11161
vt 300.435 4.05471
f 41/125/6 32/126/6 19/127/6 56/128/6 57/129/6 48/130/6 

vt 301.593 2.01871
vt 301.593 4.14761
f 18/131/6 19/127/6 32/126/6 26/132/6 

usemtl detourtop
vt -50.3369 198.406
vt -50.3369 198.425
f 51/133/5 50/123/5 19/122/5 18/134/5 

vt -51.0934 198.406
v 10.0299 27.279 -16.1237
vt -50.9407 198.425
v 10.0299 27.279 -18.1851
vt -50.9875 198.425
v 10.0299 27.279 -22.8442
vt -51.0934 198.425
f 52/135/5 51/133/5 18/134/5 58/136/5 59/137/5 60/138/5 

usemtl DarkMetal
vt 305.388 4.14761
vt 305.388 2.01871
f 26/132/6 46/139/6 58/140/6 18/131/6 

vt 305.682 4.14761
vt 305.682 2.01871
f 46/139/6 45/141/6 59/142/6 58/140/6 

usemtl metalseams
v -0.824311 67.7875 -16.1237
v -0.824311 67.7875 -18.1851
f 45/95/6 46/96/6 61/97/6 62/98/6 

v -1.14182 67.7025 -16.1237
vt 826.172 6.1864
v -1.16468 67.6963 -16.1237
v -1.85579 65.1171 -16.1237
v 15.5923 3.82576e-13 -16.1237
v 17.2223 0.436757 -16.1237
f 61/56/4 63/143/4 64/57/4 65/58/4 66/59/4 67/60/4 6/61/4 16/62/4 58/63/4 46/64/4 

v -1.16468 67.6963 -18.1851
vn -0.258819 0.965926 1.65269e-14
vt 826.282 6.35818
f 68/65/13 63/143/13 61/56/13 62/144/13 

v 15.5923 3.80937e-13 -18.1851
v -1.85579 65.1171 -18.1851
v 17.2223 0.436757 -18.1851
f 69/37/2 70/38/2 68/39/2 62/41/2 45/42/2 59/43/2 17/34/2 5/35/2 71/36/2 

vt -2318.05 5.99369
vt -2317.37 5.99369
f 65/145/3 66/85/3 69/86/3 70/146/3 

vt -2318.05 0.235221
vt -2317.37 0.235221
f 66/85/1 67/147/1 71/148/1 69/86/1 

vt 2481.77 1.35501
vt 2481.08 1.35501
f 6/149/6 5/150/6 71/79/6 67/80/6 

usemtl DarkMetal
vt 2.30339 0.482151
vt 2.59787 0.482151
vt 2.59787 1.21288
vt 2.30339 1.21288
f 6/151/3 5/152/3 17/153/3 16/154/3 

vt 2.76152 1.21288
vt 2.76152 0.482151
f 13/155/3 17/153/3 5/152/3 4/156/3 

usemtl metalseams
f 59/30/6 17/31/6 16/32/6 58/33/6 

usemtl DarkMetal
vt -1.07776 0.482151
f 7/157/3 6/151/3 16/154/3 15/46/3 8/45/3 

usemtl metalseams
v -19.3039 -3.55084e-14 -18.1851
v -19.3039 -3.38695e-14 -16.1237
f 70/78/9 72/79/9 73/80/9 65/81/9 

v -1.03081 68.196 -18.1851
v -20.9339 0.436757 -18.1851
v -2.66081 68.6327 -18.1851
f 74/71/2 68/68/2 70/67/2 72/36/2 75/37/2 76/72/2 

vn 0.965926 -0.258819 3.35919e-16
v -1.03081 68.196 -16.1237
f 65/70/14 70/67/14 68/68/14 74/71/14 77/73/14 64/69/14 

v -2.66081 68.6327 -16.1237
f 74/88/10 76/89/10 78/58/10 77/74/10 

vt 2480.96 6.25932
v -20.9339 0.436757 -16.1237
vt 2481.64 6.25932
f 78/158/8 79/91/8 75/92/8 76/159/8 

f 73/60/4 65/74/4 64/75/4 77/76/4 78/77/4 79/59/4 

f 79/82/10 73/80/10 72/79/10 75/83/10 

usemtl DarkMetal
vt 306.348 2.01871
vt 306.348 4.14761
v 1.59862 58.7451 -24.3307
vt 306.56 4.05471
v 9.64519 28.7148 -24.3307
vt 306.56 2.11161
f 60/160/6 59/142/6 45/141/6 44/161/6 80/162/6 81/163/6 

usemtl detourtop
vt 164.004 -42.733
vn -0.183013 0.683013 -0.707107
vt 164.004 -42.7909
vt 164.02 -42.7909
vt 164.02 -42.733
f 43/164/15 54/165/15 80/166/15 44/167/15 

vt 164.004 1.06742
vt 164.02 1.06742
vt 164.02 1.92388
vt 164.004 1.92388
f 53/168/2 81/169/2 80/170/2 54/171/2 

vt 164.004 44.9861
vn 0.183013 -0.683013 -0.707107
vt 164.004 44.9282
vt 164.02 44.9282
vt 164.02 44.9861
f 53/172/16 52/173/16 60/174/16 81/175/16 

vt -163.14 -42.6192
vn 0.183013 -0.683013 0.707107
vt -163.14 -42.5613
vt -163.156 -42.5613
vt -163.156 -42.6192
f 49/176/17 55/177/17 57/178/17 56/179/17 

vt -163.156 1.92388
vt -163.156 1.06742
vt -163.14 1.06742
vt -163.14 1.92388
f 48/180/4 57/181/4 55/182/4 47/183/4 

usemtl DarkMetal
vt -1.93491 0.482151
vt -1.93491 1.21288
f 1/184/3 9/44/3 14/47/3 11/185/3 

